<?xml version="1.0" encoding="UTF-8"?>
<svg xmlns="http://www.w3.org/2000/svg" xmlns:xlink="http://www.w3.org/1999/xlink" width="900px" height="900px" viewBox="0 0 900 900" version="1.1">
<defs>
<clipPath id="clip1">
  <path d="M 327 405.414062 L 351 405.414062 L 351 415 L 327 415 Z M 327 405.414062 "/>
</clipPath>
<clipPath id="clip2">
  <path d="M 304.800781 427.199219 L 351 427.199219 L 351 436.800781 L 304.800781 436.800781 Z M 304.800781 427.199219 "/>
</clipPath>
<clipPath id="clip3">
  <path d="M 261.085938 405.414062 L 351 405.414062 L 351 459.414062 L 261.085938 459.414062 Z M 261.085938 405.414062 "/>
</clipPath>
</defs>
<g id="surface1">
<g clip-path="url(#clip1)" clip-rule="nonzero">
<path style=" stroke:none;fill-rule:nonzero;fill:rgb(94.509804%,97.254902%,98.823529%);fill-opacity:1;" d="M 336.328125 405.449219 L 327.347656 414.429688 L 350.898438 414.429688 L 350.898438 405.449219 Z M 336.328125 405.449219 "/>
</g>
<g clip-path="url(#clip2)" clip-rule="nonzero">
<path style=" stroke:none;fill-rule:nonzero;fill:rgb(94.509804%,97.254902%,98.823529%);fill-opacity:1;" d="M 304.996094 436.78125 L 350.898438 436.78125 L 350.898438 427.761719 L 313.996094 427.761719 Z M 304.996094 436.78125 "/>
</g>
<g clip-path="url(#clip3)" clip-rule="nonzero">
<path style=" stroke:none;fill-rule:nonzero;fill:rgb(94.509804%,97.254902%,98.823529%);fill-opacity:1;" d="M 327.421875 405.449219 L 271.902344 405.449219 L 271.902344 414.429688 L 305.738281 414.429688 L 261.066406 459.101562 L 350.898438 459.101562 L 350.898438 450.148438 L 282.75 450.148438 Z M 327.421875 405.449219 "/>
</g>
<path style=" stroke:none;fill-rule:nonzero;fill:rgb(94.509804%,97.254902%,98.823529%);fill-opacity:1;" d="M 417.128906 421.550781 L 398.191406 444.164062 L 417.355469 444.164062 L 417.355469 448.886719 L 391.105469 448.886719 L 391.105469 445.101562 L 410.082031 422.488281 L 391.667969 422.488281 L 391.667969 417.800781 L 417.128906 417.800781 Z M 417.128906 421.550781 "/>
<path style=" stroke:none;fill-rule:nonzero;fill:rgb(94.509804%,97.254902%,98.823529%);fill-opacity:1;" d="M 452.351562 422.488281 L 435.363281 422.488281 L 435.363281 430.886719 L 450.550781 430.886719 L 450.550781 435.613281 L 435.363281 435.613281 L 435.363281 444.164062 L 452.875 444.164062 L 452.875 448.886719 L 430.113281 448.886719 L 430.113281 417.800781 L 452.351562 417.800781 Z M 452.351562 422.488281 "/>
<path style=" stroke:none;fill-rule:nonzero;fill:rgb(94.509804%,97.254902%,98.823529%);fill-opacity:1;" d="M 493.203125 448.886719 L 488.0625 448.886719 L 471.488281 426.574219 L 471.488281 448.886719 L 466.238281 448.886719 L 466.238281 417.800781 L 471.375 417.800781 L 488.0625 440.148438 L 488.0625 417.800781 L 493.203125 417.800781 Z M 493.203125 448.886719 "/>
<path style=" stroke:none;fill-rule:nonzero;fill:rgb(94.509804%,97.254902%,98.823529%);fill-opacity:1;" d="M 521.15625 438.539062 L 521.15625 448.886719 L 515.945312 448.886719 L 515.945312 438.726562 L 504.355469 417.800781 L 509.644531 417.800781 L 518.53125 432.949219 L 527.230469 417.800781 L 532.59375 417.800781 Z M 521.15625 438.539062 "/>
</g>
</svg>
