<svg xmlns="http://www.w3.org/2000/svg" xmlns:xlink="http://www.w3.org/1999/xlink" width="500" zoomAndPan="magnify" viewBox="0 0 375 374.999991" height="500" preserveAspectRatio="xMidYMid meet" version="1.0"><defs><g/><clipPath id="8b7fb9b9af"><path d="M 136 168.921875 L 146.277344 168.921875 L 146.277344 173 L 136 173 Z M 136 168.921875 " clip-rule="nonzero"/></clipPath><clipPath id="048b35df3a"><path d="M 127 178 L 146.277344 178 L 146.277344 182 L 127 182 Z M 127 178 " clip-rule="nonzero"/></clipPath><clipPath id="002ca6e31c"><path d="M 108.785156 168.921875 L 146.277344 168.921875 L 146.277344 191.421875 L 108.785156 191.421875 Z M 108.785156 168.921875 " clip-rule="nonzero"/></clipPath></defs><g clip-path="url(#8b7fb9b9af)"><path fill="#f1f8fc" d="M 140.136719 168.9375 L 136.394531 172.679688 L 146.207031 172.679688 L 146.207031 168.9375 Z M 140.136719 168.9375 " fill-opacity="1" fill-rule="nonzero"/></g><g clip-path="url(#048b35df3a)"><path fill="#f1f8fc" d="M 127.082031 181.992188 L 146.207031 181.992188 L 146.207031 178.234375 L 130.832031 178.234375 Z M 127.082031 181.992188 " fill-opacity="1" fill-rule="nonzero"/></g><g clip-path="url(#002ca6e31c)"><path fill="#f1f8fc" d="M 136.425781 168.9375 L 113.292969 168.9375 L 113.292969 172.679688 L 127.390625 172.679688 L 108.777344 191.292969 L 146.207031 191.292969 L 146.207031 187.5625 L 117.8125 187.5625 Z M 136.425781 168.9375 " fill-opacity="1" fill-rule="nonzero"/></g><g fill="#f1f8fc" fill-opacity="1"><g transform="translate(162.273267, 187.036471)"><g><path d="M 11.53125 -11.390625 L 3.640625 -1.96875 L 11.625 -1.96875 L 11.625 0 L 0.6875 0 L 0.6875 -1.578125 L 8.59375 -11 L 0.921875 -11 L 0.921875 -12.953125 L 11.53125 -12.953125 Z M 11.53125 -11.390625 "/></g></g></g><g fill="#f1f8fc" fill-opacity="1"><g transform="translate(177.510734, 187.036471)"><g><path d="M 10.96875 -11 L 3.890625 -11 L 3.890625 -7.5 L 10.21875 -7.5 L 10.21875 -5.53125 L 3.890625 -5.53125 L 3.890625 -1.96875 L 11.1875 -1.96875 L 11.1875 0 L 1.703125 0 L 1.703125 -12.953125 L 10.96875 -12.953125 Z M 10.96875 -11 "/></g></g></g><g fill="#f1f8fc" fill-opacity="1"><g transform="translate(192.563064, 187.036471)"><g><path d="M 12.9375 0 L 10.796875 0 L 3.890625 -9.296875 L 3.890625 0 L 1.703125 0 L 1.703125 -12.953125 L 3.84375 -12.953125 L 10.796875 -3.640625 L 10.796875 -12.953125 L 12.9375 -12.953125 Z M 12.9375 0 "/></g></g></g><g fill="#f1f8fc" fill-opacity="1"><g transform="translate(210.133255, 187.036471)"><g><path d="M 7.015625 -4.3125 L 7.015625 0 L 4.84375 0 L 4.84375 -4.234375 L 0.015625 -12.953125 L 2.21875 -12.953125 L 5.921875 -6.640625 L 9.546875 -12.953125 L 11.78125 -12.953125 Z M 7.015625 -4.3125 "/></g></g></g></svg>