<svg xmlns="http://www.w3.org/2000/svg" xmlns:xlink="http://www.w3.org/1999/xlink" width="500" zoomAndPan="magnify" viewBox="0 0 375 374.999991" height="500" preserveAspectRatio="xMidYMid meet" version="1.0"><defs><g/><clipPath id="6391f893f0"><path d="M 130 153.945312 L 146.925781 153.945312 L 146.925781 161 L 130 161 Z M 130 153.945312 " clip-rule="nonzero"/></clipPath><clipPath id="a78cb149da"><path d="M 114 169 L 146.925781 169 L 146.925781 176 L 114 176 Z M 114 169 " clip-rule="nonzero"/></clipPath><clipPath id="0f574b2d86"><path d="M 83.933594 153.945312 L 146.925781 153.945312 L 146.925781 191.445312 L 83.933594 191.445312 Z M 83.933594 153.945312 " clip-rule="nonzero"/></clipPath></defs><rect x="-37.5" width="450" fill="#ffffff" y="-37.499999" height="449.999989" fill-opacity="1"/><rect x="-37.5" width="450" fill="#0c023d" y="-37.499999" height="449.999989" fill-opacity="1"/><g clip-path="url(#6391f893f0)"><path fill="#f1f8fc" d="M 136.589844 153.964844 L 130.304688 160.25 L 146.785156 160.25 L 146.785156 153.964844 Z M 136.589844 153.964844 " fill-opacity="1" fill-rule="nonzero"/></g><g clip-path="url(#a78cb149da)"><path fill="#f1f8fc" d="M 114.664062 175.890625 L 146.785156 175.890625 L 146.785156 169.578125 L 120.960938 169.578125 Z M 114.664062 175.890625 " fill-opacity="1" fill-rule="nonzero"/></g><g clip-path="url(#0f574b2d86)"><path fill="#f1f8fc" d="M 130.351562 153.964844 L 91.507812 153.964844 L 91.507812 160.25 L 115.179688 160.25 L 83.925781 191.503906 L 146.785156 191.503906 L 146.785156 185.242188 L 99.097656 185.242188 Z M 130.351562 153.964844 " fill-opacity="1" fill-rule="nonzero"/></g><g fill="#f1f8fc" fill-opacity="1"><g transform="translate(160.315758, 189.379485)"><g><path d="M 26.796875 -26.453125 L 8.46875 -4.5625 L 27.015625 -4.5625 L 27.015625 0 L 1.59375 0 L 1.59375 -3.65625 L 19.953125 -25.546875 L 2.15625 -25.546875 L 2.15625 -30.109375 L 26.796875 -30.109375 Z M 26.796875 -26.453125 "/></g></g></g><g fill="#f1f8fc" fill-opacity="1"><g transform="translate(195.720291, 189.379485)"><g><path d="M 25.46875 -25.546875 L 9.03125 -25.546875 L 9.03125 -17.421875 L 23.75 -17.421875 L 23.75 -12.859375 L 9.03125 -12.859375 L 9.03125 -4.5625 L 25.984375 -4.5625 L 25.984375 0 L 3.953125 0 L 3.953125 -30.109375 L 25.46875 -30.109375 Z M 25.46875 -25.546875 "/></g></g></g><g fill="#f1f8fc" fill-opacity="1"><g transform="translate(230.694659, 189.379485)"><g><path d="M 30.0625 0 L 25.078125 0 L 9.03125 -21.59375 L 9.03125 0 L 3.953125 0 L 3.953125 -30.109375 L 8.953125 -30.109375 L 25.078125 -8.46875 L 25.078125 -30.109375 L 30.0625 -30.109375 Z M 30.0625 0 "/></g></g></g><g fill="#f1f8fc" fill-opacity="1"><g transform="translate(271.519319, 189.379485)"><g><path d="M 16.296875 -10.015625 L 16.296875 0 L 11.265625 0 L 11.265625 -9.84375 L 0.046875 -30.109375 L 5.15625 -30.109375 L 13.765625 -15.4375 L 22.203125 -30.109375 L 27.359375 -30.109375 Z M 16.296875 -10.015625 "/></g></g></g></svg>